<svg width="48" height="48" viewBox="0 0 48 48" fill="none" xmlns="http://www.w3.org/2000/svg">
  <defs>
    <!-- Gradiente dourado OLV -->
    <linearGradient id="goldGradient" x1="0%" y1="0%" x2="100%" y2="100%">
      <stop offset="0%" style="stop-color:#D4AF37;stop-opacity:1" />
      <stop offset="50%" style="stop-color:#F4E4BC;stop-opacity:0.9" />
      <stop offset="100%" style="stop-color:#D4AF37;stop-opacity:1" />
    </linearGradient>
    
    <!-- Gradiente roxo para compliance -->
    <linearGradient id="purpleAccent" x1="0%" y1="0%" x2="100%" y2="100%">
      <stop offset="0%" style="stop-color:#8B5CF6;stop-opacity:0.3" />
      <stop offset="100%" style="stop-color:#A78BFA;stop-opacity:0.2" />
    </linearGradient>
    
    <!-- Gradiente de reflexo -->
    <linearGradient id="reflectionGradient" x1="0%" y1="0%" x2="100%" y2="100%">
      <stop offset="0%" style="stop-color:#FFFFFF;stop-opacity:0.4" />
      <stop offset="100%" style="stop-color:#FFFFFF;stop-opacity:0.2" />
    </linearGradient>
    
    <!-- Filtro de blur suave para glass effect -->
    <filter id="glassBlur" x="-50%" y="-50%" width="200%" height="200%">
      <feGaussianBlur in="SourceGraphic" stdDeviation="1" />
    </filter>
    
    <!-- Filtro de glow dourado -->
    <filter id="goldGlow" x="-50%" y="-50%" width="200%" height="200%">
      <feGaussianBlur in="SourceGraphic" stdDeviation="2" />
      <feColorMatrix type="matrix" values="1 0 0 0 0.831 0.686 0 0 0 0.686 0.215 0 0 0 0.215 0 0 0 0.9 0"/>
    </filter>
  </defs>
  
  <!-- Sombra projetada sutil -->
  <ellipse cx="24" cy="42" rx="12" ry="3" fill="rgba(139, 92, 246, 0.2)" filter="url(#glassBlur)"/>
  
  <!-- Base de cristal translúcido -->
  <rect x="8" y="12" width="32" height="24" rx="4" fill="url(#purpleAccent)" stroke="url(#goldGradient)" stroke-width="2" filter="url(#glassBlur)"/>
  
  <!-- Caixa principal com glass effect -->
  <rect x="10" y="14" width="28" height="20" rx="3" fill="rgba(255, 255, 255, 0.25)" stroke="url(#goldGradient)" stroke-width="1.5" filter="url(#goldGlow)"/>
  
  <!-- Reflexo superior -->
  <rect x="10" y="14" width="28" height="6" rx="3" fill="url(#reflectionGradient)" opacity="0.7"/>
  
  <!-- Escudo de compliance -->
  <path d="M24 16 L32 20 L32 26 C32 30 28 32 24 34 C20 32 16 30 16 26 L16 20 Z" fill="url(#goldGradient)" filter="url(#goldGlow)"/>
  
  <!-- Símbolo de verificação -->
  <path d="M20 24 L22 26 L28 20" stroke="rgba(255, 255, 255, 0.9)" stroke-width="2" stroke-linecap="round" stroke-linejoin="round"/>
  
  <!-- Documento de compliance -->
  <rect x="14" y="18" width="20" height="16" rx="1" fill="rgba(255, 255, 255, 0.2)" stroke="url(#goldGradient)" stroke-width="1"/>
  
  <!-- Linhas do documento -->
  <line x1="16" y1="22" x2="32" y2="22" stroke="url(#goldGradient)" stroke-width="1" opacity="0.8"/>
  <line x1="16" y1="25" x2="28" y2="25" stroke="url(#goldGradient)" stroke-width="1" opacity="0.6"/>
  <line x1="16" y1="28" x2="30" y2="28" stroke="url(#goldGradient)" stroke-width="1" opacity="0.8"/>
  <line x1="16" y1="31" x2="26" y2="31" stroke="url(#goldGradient)" stroke-width="1" opacity="0.6"/>
  
  <!-- Pontos de brilho -->
  <circle cx="16" cy="16" r="1.2" fill="#F4E4BC" opacity="0.9"/>
  <circle cx="32" cy="20" r="1" fill="#F4E4BC" opacity="0.8"/>
  <circle cx="28" cy="28" r="0.8" fill="#F4E4BC" opacity="0.9"/>
</svg> 