<svg xmlns="http://www.w3.org/2000/svg" width="48" height="48" viewBox="0 0 48 48" fill="none">
  <path d="M24 4C12.96 4 4 12.96 4 24C4 35.04 12.96 44 24 44C35.04 44 44 35.04 44 24C44 12.96 35.04 4 24 4ZM24 8C32.84 8 40 15.16 40 24C40 32.84 32.84 40 24 40C15.16 40 8 32.84 8 24C8 15.16 15.16 8 24 8Z" fill="#0a2463"/>
  <path d="M24 12C18.48 12 14 16.48 14 22C14 27.52 18.48 32 24 32C29.52 32 34 27.52 34 22C34 16.48 29.52 12 24 12ZM24 16C27.32 16 30 18.68 30 22C30 25.32 27.32 28 24 28C20.68 28 18 25.32 18 22C18 18.68 20.68 16 24 16Z" fill="#0a2463"/>
  <circle cx="24" cy="22" r="3" fill="#0a2463"/>
</svg> 