<svg width="48" height="48" viewBox="0 0 48 48" fill="none" xmlns="http://www.w3.org/2000/svg">
  <defs>
    <linearGradient id="goldGradient" x1="0%" y1="0%" x2="100%" y2="100%">
      <stop offset="0%" style="stop-color:#D4AF37;stop-opacity:1" />
      <stop offset="50%" style="stop-color:#F4E4BC;stop-opacity:0.9" />
      <stop offset="100%" style="stop-color:#D4AF37;stop-opacity:1" />
    </linearGradient>
    <linearGradient id="blueAccent" x1="0%" y1="0%" x2="100%" y2="100%">
      <stop offset="0%" style="stop-color:#3B82F6;stop-opacity:0.3" />
      <stop offset="100%" style="stop-color:#60A5FA;stop-opacity:0.2" />
    </linearGradient>
    <linearGradient id="reflectionGradient" x1="0%" y1="0%" x2="100%" y2="100%">
      <stop offset="0%" style="stop-color:#FFFFFF;stop-opacity:0.4" />
      <stop offset="100%" style="stop-color:#FFFFFF;stop-opacity:0.2" />
    </linearGradient>
    <filter id="glassBlur" x="-50%" y="-50%" width="200%" height="200%">
      <feGaussianBlur in="SourceGraphic" stdDeviation="1" />
    </filter>
    <filter id="goldGlow" x="-50%" y="-50%" width="200%" height="200%">
      <feGaussianBlur in="SourceGraphic" stdDeviation="2" />
      <feColorMatrix type="matrix" values="1 0 0 0 0.831 0.686 0 0 0 0.686 0.215 0 0 0 0.215 0 0 0 0.9 0"/>
    </filter>
  </defs>
  <ellipse cx="24" cy="42" rx="12" ry="3" fill="rgba(59, 130, 246, 0.18)" filter="url(#glassBlur)"/>
  <rect x="8" y="12" width="32" height="24" rx="4" fill="url(#blueAccent)" stroke="url(#goldGradient)" stroke-width="2" filter="url(#glassBlur)"/>
  <rect x="10" y="14" width="28" height="20" rx="3" fill="rgba(255,255,255,0.22)" stroke="url(#goldGradient)" stroke-width="1.5" filter="url(#goldGlow)"/>
  <rect x="10" y="14" width="28" height="6" rx="3" fill="url(#reflectionGradient)" opacity="0.7"/>
  <!-- Seta de exportação -->
  <path d="M28 26 L20 26 L20 30 L16 24 L20 18 L20 22 L28 22 Z" fill="url(#goldGradient)" filter="url(#goldGlow)"/>
  <line x1="34" y1="18" x2="26" y2="18" stroke="url(#goldGradient)" stroke-width="1.5" opacity="0.8"/>
  <line x1="34" y1="21" x2="30" y2="21" stroke="url(#goldGradient)" stroke-width="1.5" opacity="0.6"/>
  <line x1="34" y1="24" x2="28" y2="24" stroke="url(#goldGradient)" stroke-width="1.5" opacity="0.8"/>
  <circle cx="32" cy="16" r="1.2" fill="#F4E4BC" opacity="0.9"/>
  <circle cx="16" cy="20" r="1" fill="#F4E4BC" opacity="0.8"/>
  <circle cx="20" cy="28" r="0.8" fill="#F4E4BC" opacity="0.9"/>
</svg> 