<svg width="48" height="48" viewBox="0 0 48 48" fill="none" xmlns="http://www.w3.org/2000/svg">
  <defs>
    <!-- Gradiente dourado OLV -->
    <linearGradient id="goldGradient" x1="0%" y1="0%" x2="100%" y2="100%">
      <stop offset="0%" style="stop-color:#D4AF37;stop-opacity:1" />
      <stop offset="50%" style="stop-color:#F4E4BC;stop-opacity:0.9" />
      <stop offset="100%" style="stop-color:#D4AF37;stop-opacity:1" />
    </linearGradient>
    
    <!-- Gradiente de reflexo -->
    <linearGradient id="reflectionGradient" x1="0%" y1="0%" x2="100%" y2="100%">
      <stop offset="0%" style="stop-color:#FFFFFF;stop-opacity:0.4" />
      <stop offset="100%" style="stop-color:#FFFFFF;stop-opacity:0.2" />
    </linearGradient>
    
    <!-- Filtro de blur suave para glass effect -->
    <filter id="glassBlur" x="-50%" y="-50%" width="200%" height="200%">
      <feGaussianBlur in="SourceGraphic" stdDeviation="1" />
    </filter>
    
    <!-- Filtro de glow dourado -->
    <filter id="goldGlow" x="-50%" y="-50%" width="200%" height="200%">
      <feGaussianBlur in="SourceGraphic" stdDeviation="2" />
      <feColorMatrix type="matrix" values="1 0 0 0 0.831 0.686 0 0 0 0.686 0.215 0 0 0 0.215 0 0 0 0.9 0"/>
    </filter>
  </defs>
  
  <!-- Sombra projetada sutil -->
  <ellipse cx="24" cy="42" rx="12" ry="3" fill="rgba(212, 175, 55, 0.3)" filter="url(#glassBlur)"/>
  
  <!-- Base de cristal translúcido -->
  <rect x="8" y="12" width="32" height="24" rx="4" fill="rgba(255, 255, 255, 0.2)" stroke="url(#goldGradient)" stroke-width="2" filter="url(#glassBlur)"/>
  
  <!-- Caixa principal com glass effect -->
  <rect x="10" y="14" width="28" height="20" rx="3" fill="rgba(255, 255, 255, 0.25)" stroke="url(#goldGradient)" stroke-width="1.5" filter="url(#goldGlow)"/>
  
  <!-- Reflexo superior -->
  <rect x="10" y="14" width="28" height="6" rx="3" fill="url(#reflectionGradient)" opacity="0.7"/>
  
  <!-- Seta de importação -->
  <path d="M20 22 L28 22 L28 18 L32 24 L28 30 L28 26 L20 26 Z" fill="url(#goldGradient)" filter="url(#goldGlow)"/>
  
  <!-- Linhas de detalhe -->
  <line x1="14" y1="18" x2="22" y2="18" stroke="url(#goldGradient)" stroke-width="1.5" opacity="0.8"/>
  <line x1="14" y1="21" x2="18" y2="21" stroke="url(#goldGradient)" stroke-width="1.5" opacity="0.6"/>
  <line x1="14" y1="24" x2="20" y2="24" stroke="url(#goldGradient)" stroke-width="1.5" opacity="0.8"/>
  
  <!-- Pontos de brilho -->
  <circle cx="16" cy="16" r="1.2" fill="#F4E4BC" opacity="0.9"/>
  <circle cx="32" cy="20" r="1" fill="#F4E4BC" opacity="0.8"/>
  <circle cx="28" cy="28" r="0.8" fill="#F4E4BC" opacity="0.9"/>
</svg> 