<svg width="48" height="48" viewBox="0 0 48 48" fill="none" xmlns="http://www.w3.org/2000/svg">
  <defs>
    <!-- Gradiente dourado OLV -->
    <linearGradient id="goldGradient" x1="0%" y1="0%" x2="100%" y2="100%">
      <stop offset="0%" style="stop-color:#D4AF37;stop-opacity:1" />
      <stop offset="50%" style="stop-color:#F4E4BC;stop-opacity:0.9" />
      <stop offset="100%" style="stop-color:#D4AF37;stop-opacity:1" />
    </linearGradient>
    
    <!-- Gradiente azul para logística -->
    <linearGradient id="blueAccent" x1="0%" y1="0%" x2="100%" y2="100%">
      <stop offset="0%" style="stop-color:#3B82F6;stop-opacity:0.3" />
      <stop offset="100%" style="stop-color:#60A5FA;stop-opacity:0.2" />
    </linearGradient>
    
    <!-- Gradiente de reflexo -->
    <linearGradient id="reflectionGradient" x1="0%" y1="0%" x2="100%" y2="100%">
      <stop offset="0%" style="stop-color:#FFFFFF;stop-opacity:0.4" />
      <stop offset="100%" style="stop-color:#FFFFFF;stop-opacity:0.2" />
    </linearGradient>
    
    <!-- Filtro de blur suave para glass effect -->
    <filter id="glassBlur" x="-50%" y="-50%" width="200%" height="200%">
      <feGaussianBlur in="SourceGraphic" stdDeviation="1" />
    </filter>
    
    <!-- Filtro de glow dourado -->
    <filter id="goldGlow" x="-50%" y="-50%" width="200%" height="200%">
      <feGaussianBlur in="SourceGraphic" stdDeviation="2" />
      <feColorMatrix type="matrix" values="1 0 0 0 0.831 0.686 0 0 0 0.686 0.215 0 0 0 0.215 0 0 0 0.9 0"/>
    </filter>
  </defs>
  
  <!-- Sombra projetada sutil -->
  <ellipse cx="24" cy="42" rx="12" ry="3" fill="rgba(59, 130, 246, 0.2)" filter="url(#glassBlur)"/>
  
  <!-- Base de cristal translúcido -->
  <rect x="8" y="12" width="32" height="24" rx="4" fill="url(#blueAccent)" stroke="url(#goldGradient)" stroke-width="2" filter="url(#glassBlur)"/>
  
  <!-- Caixa principal com glass effect -->
  <rect x="10" y="14" width="28" height="20" rx="3" fill="rgba(255, 255, 255, 0.25)" stroke="url(#goldGradient)" stroke-width="1.5" filter="url(#goldGlow)"/>
  
  <!-- Reflexo superior -->
  <rect x="10" y="14" width="28" height="6" rx="3" fill="url(#reflectionGradient)" opacity="0.7"/>
  
  <!-- Caminhão de logística -->
  <rect x="12" y="22" width="16" height="8" rx="1" fill="url(#goldGradient)" filter="url(#goldGlow)"/>
  <rect x="28" y="24" width="6" height="6" rx="1" fill="url(#goldGradient)" filter="url(#goldGlow)"/>
  
  <!-- Rodas -->
  <circle cx="16" cy="30" r="2" fill="url(#goldGradient)" filter="url(#goldGlow)"/>
  <circle cx="16" cy="30" r="1" fill="rgba(255, 255, 255, 0.8)"/>
  <circle cx="30" cy="30" r="2" fill="url(#goldGradient)" filter="url(#goldGlow)"/>
  <circle cx="30" cy="30" r="1" fill="rgba(255, 255, 255, 0.8)"/>
  
  <!-- Cabine -->
  <rect x="12" y="18" width="8" height="6" rx="1" fill="url(#goldGradient)" filter="url(#goldGlow)"/>
  
  <!-- Janela da cabine -->
  <rect x="13" y="19" width="6" height="4" rx="0.5" fill="rgba(255, 255, 255, 0.3)"/>
  
  <!-- Linhas de rota -->
  <path d="M8 32 L40 32" stroke="url(#goldGradient)" stroke-width="1" stroke-dasharray="2,2" opacity="0.6"/>
  <path d="M8 34 L40 34" stroke="url(#goldGradient)" stroke-width="1" stroke-dasharray="2,2" opacity="0.4"/>
  
  <!-- Pontos de brilho -->
  <circle cx="16" cy="16" r="1.2" fill="#F4E4BC" opacity="0.9"/>
  <circle cx="32" cy="20" r="1" fill="#F4E4BC" opacity="0.8"/>
  <circle cx="28" cy="28" r="0.8" fill="#F4E4BC" opacity="0.9"/>
</svg> 