<svg width="24" height="24" viewBox="0 0 24 24" fill="none" xmlns="http://www.w3.org/2000/svg">
  <!-- Sombra projetada -->
  <ellipse cx="12" cy="22" rx="8" ry="2" fill="rgba(212, 175, 55, 0.3)" filter="blur(4px)"/>
  
  <!-- Fundo glass com blur -->
  <rect x="2" y="2" width="20" height="20" rx="6" fill="rgba(255, 255, 255, 0.1)" stroke="rgba(212, 175, 55, 0.6)" stroke-width="1.5"/>
  <rect x="2" y="2" width="20" height="20" rx="6" fill="url(#glass-gradient)" opacity="0.8"/>
  
  <!-- Gráfico crescente elegante -->
  <g transform="translate(4, 4)">
    <!-- Área do gráfico com gradiente -->
    <path d="M2 14 L6 10 L10 8 L14 6 L18 4 L18 16 L2 16 Z" fill="url(#chart-area-gradient)" opacity="0.3"/>
    
    <!-- Linha do gráfico -->
    <path d="M2 14 L6 10 L10 8 L14 6 L18 4" stroke="url(#chart-line-gradient)" stroke-width="2" stroke-linecap="round" stroke-linejoin="round"/>
    
    <!-- Pontos do gráfico -->
    <circle cx="2" cy="14" r="1.5" fill="rgba(255, 255, 255, 0.9)" stroke="rgba(212, 175, 55, 0.9)" stroke-width="1"/>
    <circle cx="6" cy="10" r="1.5" fill="rgba(255, 255, 255, 0.9)" stroke="rgba(212, 175, 55, 0.9)" stroke-width="1"/>
    <circle cx="10" cy="8" r="1.5" fill="rgba(255, 255, 255, 0.9)" stroke="rgba(212, 175, 55, 0.9)" stroke-width="1"/>
    <circle cx="14" cy="6" r="1.5" fill="rgba(255, 255, 255, 0.9)" stroke="rgba(212, 175, 55, 0.9)" stroke-width="1"/>
    <circle cx="18" cy="4" r="1.5" fill="rgba(255, 255, 255, 0.9)" stroke="rgba(212, 175, 55, 0.9)" stroke-width="1"/>
    
    <!-- Linhas de grade sutis -->
    <line x1="2" y1="4" x2="18" y2="4" stroke="rgba(212, 175, 55, 0.2)" stroke-width="0.5"/>
    <line x1="2" y1="8" x2="18" y2="8" stroke="rgba(212, 175, 55, 0.2)" stroke-width="0.5"/>
    <line x1="2" y1="12" x2="18" y2="12" stroke="rgba(212, 175, 55, 0.2)" stroke-width="0.5"/>
    <line x1="2" y1="16" x2="18" y2="16" stroke="rgba(212, 175, 55, 0.2)" stroke-width="0.5"/>
    
    <!-- Indicador de crescimento -->
    <path d="M16 2 L18 4 L20 2" stroke="rgba(212, 175, 55, 0.8)" stroke-width="1.5" stroke-linecap="round" stroke-linejoin="round"/>
  </g>
  
  <!-- Reflexos glass -->
  <rect x="3" y="3" width="18" height="18" rx="5" fill="url(#reflection-gradient)" opacity="0.3"/>
  
  <!-- Bordas glow douradas -->
  <rect x="2" y="2" width="20" height="20" rx="6" fill="none" stroke="url(#glow-gradient)" stroke-width="2" opacity="0.6"/>
  
  <!-- Gradientes -->
  <defs>
    <linearGradient id="glass-gradient" x1="0%" y1="0%" x2="100%" y2="100%">
      <stop offset="0%" style="stop-color:rgba(255,255,255,0.2);stop-opacity:1" />
      <stop offset="50%" style="stop-color:rgba(255,255,255,0.1);stop-opacity:1" />
      <stop offset="100%" style="stop-color:rgba(255,255,255,0.05);stop-opacity:1" />
    </linearGradient>
    
    <linearGradient id="chart-area-gradient" x1="0%" y1="0%" x2="0%" y2="100%">
      <stop offset="0%" style="stop-color:rgba(212,175,55,0.4);stop-opacity:1" />
      <stop offset="100%" style="stop-color:rgba(212,175,55,0.1);stop-opacity:1" />
    </linearGradient>
    
    <linearGradient id="chart-line-gradient" x1="0%" y1="0%" x2="100%" y2="0%">
      <stop offset="0%" style="stop-color:#d4af37;stop-opacity:1" />
      <stop offset="100%" style="stop-color:#b8941f;stop-opacity:1" />
    </linearGradient>
    
    <linearGradient id="reflection-gradient" x1="0%" y1="0%" x2="100%" y2="100%">
      <stop offset="0%" style="stop-color:rgba(255,255,255,0.4);stop-opacity:1" />
      <stop offset="100%" style="stop-color:rgba(255,255,255,0);stop-opacity:1" />
    </linearGradient>
    
    <linearGradient id="glow-gradient" x1="0%" y1="0%" x2="100%" y2="100%">
      <stop offset="0%" style="stop-color:#d4af37;stop-opacity:1" />
      <stop offset="50%" style="stop-color:#b8941f;stop-opacity:1" />
      <stop offset="100%" style="stop-color:#d4af37;stop-opacity:1" />
    </linearGradient>
  </defs>
</svg> 