<?xml version="1.0" standalone="no"?>
<!DOCTYPE svg PUBLIC "-//W3C//DTD SVG 20010904//EN"
 "http://www.w3.org/TR/2001/REC-SVG-20010904/DTD/svg10.dtd">
<svg version="1.0" xmlns="http://www.w3.org/2000/svg"
 width="500.000000pt" height="500.000000pt" viewBox="0 0 500.000000 500.000000"
 preserveAspectRatio="xMidYMid meet">

<g transform="translate(0.000000,500.000000) scale(0.100000,-0.100000)"
fill="#000000" stroke="none">
<path d="M0 2500 l0 -2500 2500 0 2500 0 0 2500 0 2500 -2500 0 -2500 0 0
-2500z m1878 858 c-15 -90 -30 -178 -33 -197 l-6 -34 -45 44 c-26 25 -47 39
-52 34 -4 -6 -41 -49 -81 -97 -98 -118 -214 -226 -315 -293 -103 -68 -320
-173 -442 -214 -142 -48 -154 -37 -28 23 251 120 516 329 719 567 l76 89 -51
31 -52 32 164 88 c90 49 165 89 168 89 3 0 -6 -73 -22 -162z m-473 77 c84 -20
140 -44 128 -56 -7 -7 -27 -3 -59 9 -27 11 -62 22 -79 26 -29 7 -29 7 10 -22
71 -52 146 -155 127 -174 -7 -7 -17 3 -31 29 -29 57 -69 102 -120 135 -79 50
-81 48 -81 -107 0 -122 2 -135 18 -135 24 0 129 18 155 26 19 6 20 5 9 -8 -13
-16 -103 -38 -154 -38 l-28 0 0 -69 c0 -39 -4 -73 -10 -76 -6 -4 -10 21 -10
68 l0 74 -67 7 c-38 3 -90 13 -117 21 -28 8 -53 12 -57 8 -9 -10 -39 -165 -39
-204 l0 -29 121 0 c77 0 118 -4 114 -10 -4 -6 -55 -10 -121 -10 -130 0 -124 6
-104 -101 6 -30 6 -57 1 -62 -11 -11 -31 68 -31 122 l0 41 -96 0 -97 0 7 -56
c4 -31 18 -86 32 -121 33 -81 18 -110 -15 -32 -125 291 15 625 304 727 99 35
193 41 290 17z m1219 -99 c51 -21 121 -90 147 -144 29 -59 31 -176 5 -235 -47
-106 -151 -171 -276 -171 -124 0 -206 49 -259 156 -83 165 0 355 177 405 55
15 155 10 206 -11z m376 -216 l0 -220 125 0 125 0 0 -55 0 -55 -185 0 -185 0
0 275 0 275 60 0 60 0 0 -220z m423 22 c39 -106 74 -189 78 -185 5 5 28 67 53
138 24 72 54 156 66 188 l21 57 64 0 64 0 -35 -87 c-19 -49 -67 -173 -106
-276 l-72 -188 -64 3 -64 3 -103 273 -103 273 66 -3 65 -3 70 -193z m-2033
124 c0 -11 -19 -15 -25 -6 -3 5 1 10 9 10 9 0 16 -2 16 -4z m404 -187 c27 -75
28 -242 2 -319 -82 -244 -269 -385 -511 -384 -66 1 -107 7 -155 23 -104 36
-249 138 -221 156 6 3 32 -12 58 -35 50 -43 145 -93 203 -105 l35 -8 -53 48
c-57 51 -108 128 -97 146 5 6 17 -7 32 -33 32 -56 68 -94 122 -129 71 -46 71
-46 71 106 l0 135 -26 0 -27 0 34 23 c19 13 36 20 39 16 3 -4 35 -13 71 -18
36 -6 86 -17 113 -25 l47 -14 11 26 c10 28 37 164 38 195 0 10 -7 17 -17 17
-16 1 -16 2 -2 13 8 7 19 21 24 32 8 19 9 19 12 -2 4 -22 9 -23 99 -23 l94 0
0 38 c0 33 -10 80 -36 161 -5 18 -4 23 7 19 8 -2 23 -29 33 -59z m-627 -77
c-9 -11 -12 -11 -19 2 -4 8 -5 22 -2 30 6 15 8 15 19 -1 10 -13 10 -21 2 -31z
m313 -228 c0 -2 -9 -4 -21 -4 -11 0 -18 4 -14 10 5 8 35 3 35 -6z m2077 -130
c3 -8 -2 -23 -11 -32 -14 -15 -18 -15 -31 -1 -9 9 -13 23 -9 32 8 21 43 22 51
1z m813 -139 c0 -148 -1 -155 -20 -155 -19 0 -20 7 -20 155 0 148 1 155 20
155 19 0 20 -7 20 -155z m-2390 -5 l0 -150 -25 0 -25 0 0 150 0 150 25 0 25 0
0 -150z m350 95 c0 -31 3 -35 25 -35 16 0 25 -6 25 -15 0 -9 -9 -15 -25 -15
-26 0 -26 -1 -23 -72 3 -67 5 -73 26 -76 14 -2 22 -10 22 -23 0 -24 -36 -26
-68 -3 -20 13 -22 24 -22 95 0 72 -2 79 -20 79 -11 0 -20 7 -20 15 0 8 9 15
20 15 16 0 20 7 20 35 0 28 4 35 20 35 16 0 20 -7 20 -35z m-120 -51 c10 -10
16 -41 18 -104 l4 -90 -26 0 c-26 0 -26 1 -26 78 0 83 -9 102 -46 102 -37 0
-54 -36 -54 -112 0 -61 -2 -68 -20 -68 -19 0 -20 7 -20 105 0 98 1 105 20 105
12 0 20 -7 20 -17 0 -11 3 -14 8 -7 24 35 90 40 122 8z m349 11 c30 -15 55
-62 49 -92 -3 -15 -14 -18 -76 -18 -61 0 -72 -3 -72 -17 0 -39 69 -65 97 -37
7 7 19 9 29 5 16 -6 16 -8 -1 -26 -63 -69 -187 1 -172 98 14 84 78 123 146 87z
m414 -17 c13 -16 17 -39 17 -104 0 -77 -2 -84 -20 -84 -18 0 -20 7 -20 71 0
82 -11 109 -45 109 -42 0 -55 -24 -55 -106 0 -67 -2 -74 -20 -74 -19 0 -20 7
-20 105 0 98 1 105 20 105 11 0 20 -4 20 -9 0 -6 12 -3 28 5 33 17 71 10 95
-18z m202 18 l35 -15 0 -76 c0 -58 3 -77 15 -81 17 -7 20 -30 5 -39 -6 -4 -21
0 -33 8 -20 13 -26 13 -42 1 -45 -33 -115 -2 -115 51 0 36 31 61 84 69 41 6
47 10 44 29 -4 28 -64 38 -74 13 -6 -16 -44 -23 -44 -8 0 4 7 17 15 29 13 19
25 24 68 32 4 0 23 -6 42 -13z m262 -11 c13 -9 23 -20 23 -26 0 -18 -31 -22
-49 -5 -23 21 -65 21 -82 -1 -8 -9 -14 -35 -14 -58 0 -23 6 -49 14 -58 17 -21
64 -22 81 -2 15 19 50 20 50 2 0 -39 -80 -68 -130 -47 -78 32 -82 166 -6 205
34 17 77 13 113 -10z m309 10 c92 -38 75 -193 -23 -211 -75 -14 -142 53 -128
129 8 41 24 63 61 82 36 19 46 19 90 0z m277 -17 c13 -16 17 -39 17 -104 0
-77 -2 -84 -20 -84 -18 0 -20 7 -20 71 0 82 -11 109 -45 109 -42 0 -55 -24
-55 -106 0 -67 -2 -74 -20 -74 -19 0 -20 7 -20 105 0 98 1 105 20 105 11 0 20
-5 20 -10 0 -6 12 -4 28 5 33 18 71 11 95 -17z m196 21 c42 -15 51 -35 51
-113 0 -37 4 -66 10 -66 6 0 10 -9 10 -20 0 -23 -17 -26 -46 -6 -17 12 -22 12
-39 0 -45 -33 -115 -2 -115 51 0 31 33 65 63 65 46 0 68 12 65 34 -4 27 -57
36 -70 12 -9 -16 -48 -23 -48 -8 0 18 32 51 53 55 12 2 25 5 28 6 3 0 20 -4
38 -10z m-1519 -11 c0 -9 3 -9 12 0 16 16 58 15 58 -1 0 -7 -15 -20 -32 -28
-33 -14 -33 -15 -36 -91 -3 -70 -5 -78 -22 -78 -19 0 -20 7 -20 105 0 98 1
105 20 105 11 0 20 -5 20 -12z m850 -93 c0 -98 -1 -105 -20 -105 -19 0 -20 7
-20 105 0 98 1 105 20 105 19 0 20 -7 20 -105z m-2670 -435 c0 -60 -4 -100
-10 -100 -6 0 -10 40 -10 100 0 60 4 100 10 100 6 0 10 -40 10 -100z m2490 79
c0 -5 -7 -9 -15 -9 -15 0 -20 12 -9 23 8 8 24 -1 24 -14z m-268 -11 c-7 -7
-12 -8 -12 -2 0 14 12 26 19 19 2 -3 -1 -11 -7 -17z m-1992 -13 c0 -19 6 -25
23 -26 l22 -2 -22 -4 c-20 -4 -23 -11 -23 -54 0 -42 3 -51 23 -59 21 -9 21 -9
-4 -9 -31 -1 -39 14 -39 75 0 28 -5 44 -12 45 -10 0 -10 2 0 6 6 2 12 16 12
29 0 13 5 24 10 24 6 0 10 -11 10 -25z m1520 0 c0 -17 6 -25 18 -26 16 -1 16
-2 0 -6 -24 -6 -26 -101 -3 -109 8 -4 12 -10 9 -15 -3 -5 -13 -5 -25 1 -15 9
-19 22 -19 65 0 37 -4 55 -12 56 -10 0 -10 2 0 6 6 2 12 16 12 29 0 13 5 24
10 24 6 0 10 -11 10 -25z m340 0 c0 -17 6 -25 18 -26 16 -1 16 -2 0 -6 -24 -6
-26 -101 -3 -109 8 -4 12 -10 9 -15 -3 -5 -13 -5 -25 1 -15 9 -19 22 -19 65 0
37 -4 55 -12 56 -10 0 -10 2 0 6 6 2 12 16 12 29 0 13 5 24 10 24 6 0 10 -11
10 -25z m-1946 -31 c18 -17 23 -124 6 -124 -5 0 -10 25 -10 55 0 42 -4 57 -16
62 -31 12 -49 -11 -52 -66 -4 -74 -22 -63 -22 15 0 51 3 65 13 61 8 -3 20 -1
28 4 21 13 36 11 53 -7z m244 0 c12 -8 22 -26 22 -40 0 -22 -4 -24 -46 -24
-37 0 -45 -3 -42 -16 5 -28 35 -41 59 -26 23 15 39 8 22 -9 -16 -16 -73 -14
-91 4 -25 25 -21 86 7 108 28 23 40 24 69 3z m165 5 c15 0 17 -10 17 -75 0
-61 -4 -78 -20 -94 -24 -24 -73 -26 -91 -3 -12 15 -12 16 6 9 41 -17 52 -17
67 -2 18 17 22 124 6 143 -19 23 -57 15 -70 -13 -17 -37 8 -80 45 -77 15 1 25
-2 22 -8 -12 -18 -63 -10 -79 13 -37 52 -2 127 52 113 15 -3 35 -6 45 -6z
m393 -3 c17 -13 21 -12 37 1 14 13 22 14 42 5 23 -10 25 -17 25 -72 0 -77 -18
-79 -22 -3 -2 48 -6 58 -22 61 -28 6 -46 -25 -46 -75 0 -24 -4 -43 -10 -43 -5
0 -10 25 -10 55 0 40 -4 57 -15 61 -27 11 -45 -16 -45 -67 0 -27 -4 -49 -10
-49 -6 0 -10 29 -10 66 0 51 3 65 13 61 8 -3 20 -1 28 4 19 12 22 11 45 -5z
m248 -7 c34 -27 35 -71 2 -104 -13 -13 -32 -22 -42 -20 -11 2 -22 4 -26 4 -33
4 -51 81 -25 113 25 32 56 35 91 7z m132 7 c18 -13 17 -14 -15 -13 -47 3 -51
-20 -7 -38 28 -12 36 -21 36 -40 0 -29 -33 -47 -64 -35 -22 8 -34 30 -17 30 6
0 11 -4 11 -10 0 -5 11 -10 25 -10 37 0 33 33 -7 51 -38 16 -48 47 -22 66 23
17 36 16 60 -1z m214 -6 c11 -11 20 -29 20 -40 0 -17 -7 -20 -50 -20 -53 0
-65 -15 -34 -41 12 -10 22 -10 45 -2 36 14 39 -3 4 -19 -60 -27 -114 73 -66
121 26 26 55 27 81 1z m126 5 c17 -13 16 -14 -18 -8 -31 5 -38 3 -38 -11 0
-10 15 -23 35 -32 27 -11 35 -20 35 -39 0 -14 -8 -29 -20 -35 -26 -14 -70 -2
-70 18 0 12 3 13 12 4 7 -7 22 -12 35 -12 36 0 29 34 -9 51 -38 16 -48 47 -22
66 23 17 36 16 60 -2z m572 -1 c12 -8 22 -26 22 -40 0 -22 -4 -24 -46 -24 -37
0 -45 -3 -42 -16 5 -28 35 -41 59 -26 24 15 39 8 21 -10 -18 -18 -73 -14 -88
7 -21 28 -17 82 6 105 24 24 38 25 68 4z m165 5 c15 0 17 -10 17 -75 0 -61 -4
-78 -20 -94 -24 -24 -73 -26 -91 -3 -12 15 -12 16 6 9 41 -17 52 -17 67 -2 18
17 22 124 6 143 -19 23 -57 15 -70 -13 -17 -37 8 -80 45 -77 15 1 25 -2 22 -8
-4 -5 -19 -9 -35 -9 -40 0 -65 37 -56 85 8 40 31 57 66 50 14 -4 33 -6 43 -6z
m222 -23 c2 -11 6 -42 8 -68 4 -41 2 -46 -12 -39 -9 5 -25 5 -36 0 -11 -4 -23
-8 -27 -8 -9 -1 -38 28 -38 39 0 18 33 40 61 40 22 0 29 5 29 20 0 26 -27 37
-51 22 -23 -15 -29 -15 -29 -2 0 15 39 27 67 22 14 -3 25 -13 28 -26z m-1960
12 c-29 -16 -35 -28 -35 -75 0 -24 -4 -43 -10 -43 -6 0 -10 28 -10 63 l0 64
38 1 c32 1 34 0 17 -10z m135 -9 c6 -11 10 -36 9 -54 -2 -19 0 -37 4 -41 14
-14 7 -25 -10 -15 -10 5 -26 5 -41 0 -45 -17 -82 27 -50 59 7 7 24 12 39 12
35 0 46 17 25 38 -14 14 -20 15 -37 4 -22 -14 -35 -10 -24 7 12 20 73 13 85
-10z m1075 9 c-29 -16 -35 -28 -35 -75 0 -24 -4 -43 -10 -43 -6 0 -10 28 -10
63 l0 64 38 1 c32 1 34 0 17 -10z m133 -43 c2 -27 7 -54 13 -59 16 -17 10 -27
-11 -16 -14 8 -26 8 -40 0 -40 -22 -80 26 -48 58 7 7 25 12 41 12 24 0 28 4
25 23 -3 22 -48 39 -48 18 0 -6 -7 -11 -16 -11 -14 0 -14 3 -4 16 9 10 26 14
49 12 36 -3 36 -4 39 -53z m482 -10 c0 -37 -4 -65 -10 -65 -6 0 -10 28 -10 65
0 37 4 65 10 65 6 0 10 -28 10 -65z m210 -64 c0 -42 -15 -46 -17 -5 -1 19 3
34 8 34 5 0 9 -13 9 -29z m-738 -226 c2 -79 0 -105 -9 -105 -10 0 -13 28 -13
105 0 59 4 105 9 105 6 0 11 -47 13 -105z m410 2 l3 -103 -52 -2 c-59 -3 -73
11 -73 71 0 45 29 72 70 64 29 -6 30 -6 30 33 0 22 4 40 9 40 6 0 11 -46 13
-103z m-1486 82 c4 -8 9 -8 17 0 16 16 27 14 21 -4 -4 -10 -17 -14 -40 -12
-33 2 -40 7 -27 20 9 10 21 8 29 -4z m1170 -49 c8 0 14 -4 14 -10 0 -5 -7 -10
-15 -10 -23 0 -21 -88 3 -107 16 -12 15 -13 -8 -11 -23 3 -25 8 -28 58 -2 30
-9 58 -15 63 -9 7 -9 10 1 14 6 2 12 13 12 22 0 29 15 35 18 7 2 -14 10 -26
18 -26z m-1976 -20 c43 -43 14 -120 -45 -120 -24 0 -39 7 -49 22 -34 49 -5
118 49 118 14 0 34 -9 45 -20z m92 8 c34 34 88 -1 88 -58 0 -53 -19 -74 -63
-68 -35 4 -37 2 -37 -23 0 -15 -4 -31 -10 -34 -6 -4 -10 31 -10 97 0 68 3 98
10 88 7 -12 12 -12 22 -2z m220 -5 c10 -9 18 -27 18 -40 0 -24 -2 -25 -50 -18
-56 8 -63 -2 -29 -36 11 -11 27 -18 35 -15 50 21 50 21 35 3 -20 -25 -76 -22
-95 5 -47 67 27 155 86 101z m78 5 c0 -9 3 -9 12 0 13 13 38 16 38 4 0 -4 -10
-12 -22 -17 -19 -8 -24 -19 -26 -62 -4 -78 -22 -64 -22 17 0 40 4 70 10 70 6
0 10 -5 10 -12z m158 0 c7 -7 12 -33 12 -58 0 -25 5 -51 11 -57 7 -7 -6 -10
-48 -9 -58 1 -58 1 -58 31 0 27 4 31 35 35 27 4 36 10 38 28 3 17 -1 22 -20
22 -13 0 -29 -5 -36 -12 -9 -9 -12 -8 -12 4 0 27 56 38 78 16z m146 6 c9 -3
16 -13 16 -22 0 -12 -3 -13 -12 -4 -7 7 -21 12 -33 12 -29 0 -45 -19 -45 -51
0 -28 22 -59 42 -59 6 0 20 7 30 17 23 21 35 11 13 -11 -39 -39 -105 -7 -105
51 0 54 45 86 94 67z m144 -6 c7 -7 12 -33 12 -58 0 -25 5 -51 11 -57 7 -7 -6
-10 -48 -9 -58 1 -58 1 -58 31 0 27 4 31 35 35 27 4 36 10 38 28 3 18 -1 22
-22 22 -14 0 -28 -5 -31 -10 -4 -6 -11 -7 -17 -4 -15 9 20 34 47 34 12 0 26
-5 33 -12z m166 -10 c36 -51 8 -118 -49 -118 -39 0 -65 29 -65 72 0 60 82 93
114 46z m220 0 c9 -12 16 -31 16 -41 0 -16 -6 -17 -50 -11 -41 5 -50 4 -50 -9
0 -24 30 -49 49 -41 9 3 25 8 36 11 20 4 20 4 1 -11 -26 -21 -65 -20 -88 1
-23 20 -24 80 -1 105 23 25 68 23 87 -4z m136 10 c0 -9 3 -9 12 0 13 13 38 16
38 4 0 -4 -10 -12 -22 -17 -19 -8 -24 -19 -26 -62 -4 -78 -22 -64 -22 17 0 40
4 70 10 70 6 0 10 -5 10 -12z m174 -10 c9 -12 16 -31 16 -41 0 -16 -6 -17 -50
-11 -41 5 -50 4 -50 -9 0 -24 30 -49 49 -41 9 3 25 9 36 12 18 5 18 4 6 -11
-17 -22 -69 -22 -93 0 -23 20 -24 80 -1 105 23 25 68 23 87 -4z m120 16 c29
-11 16 -23 -19 -17 -28 4 -35 2 -35 -11 0 -9 15 -22 35 -30 26 -11 35 -21 35
-39 0 -38 -65 -53 -91 -20 -12 15 -12 16 6 9 34 -15 59 -12 63 6 2 12 -8 22
-32 32 -70 29 -32 97 38 70z m78 -51 c3 -55 4 -58 31 -61 35 -4 25 -22 -13
-22 -34 0 -40 14 -40 86 0 72 18 69 22 -3z m88 -13 c0 -38 -4 -70 -9 -70 -14
0 -17 21 -13 83 5 81 22 71 22 -13z m295 54 c10 -11 15 -30 14 -53 -2 -20 1
-42 5 -49 11 -19 -1 -27 -18 -13 -10 8 -16 9 -21 1 -12 -19 -63 -12 -70 10 -9
28 9 47 51 55 26 4 34 11 32 23 -4 21 -48 29 -59 11 -4 -8 -11 -10 -15 -6 -12
11 17 37 42 37 12 0 30 -7 39 -16z m330 -4 c39 -43 10 -120 -45 -120 -36 0
-59 19 -66 55 -12 65 68 112 111 65z m83 -108 c2 -7 -3 -12 -12 -12 -9 0 -16
7 -16 16 0 17 22 14 28 -4z m-1838 -41 c0 -11 -23 -31 -34 -31 -6 0 -4 5 4 11
11 8 12 12 3 16 -21 8 -15 22 7 16 11 -3 20 -8 20 -12z"/>
<path d="M1140 3401 c-30 -10 -69 -25 -86 -34 -42 -22 -134 -95 -134 -107 0
-10 81 -60 98 -60 6 0 25 27 43 61 18 33 56 82 86 110 30 27 53 49 51 48 -2 0
-28 -8 -58 -18z"/>
<path d="M1209 3390 c-46 -24 -102 -87 -134 -151 -15 -28 -25 -52 -23 -54 9
-9 117 -35 168 -41 l60 -7 0 137 c0 153 0 153 -71 116z m-19 -110 c0 -5 -2
-10 -4 -10 -3 0 -8 5 -11 10 -3 6 -1 10 4 10 6 0 11 -4 11 -10z"/>
<path d="M864 3185 c-39 -67 -64 -139 -71 -206 l-6 -59 97 0 96 0 0 48 c0 43
19 142 35 183 5 13 -8 24 -51 48 -32 17 -61 31 -65 31 -5 0 -20 -20 -35 -45z"/>
<path d="M2419 3227 c-72 -49 -100 -127 -74 -213 43 -146 239 -166 304 -32 60
126 -19 267 -150 268 -32 0 -57 -7 -80 -23z"/>
<path d="M1597 2833 c-3 -38 -14 -93 -24 -123 l-19 -56 62 -35 61 -36 20 31
c51 76 93 193 93 258 l0 28 -94 0 -93 0 -6 -67z m108 -43 c3 -5 -1 -10 -10
-10 -9 0 -13 5 -10 10 3 6 8 10 10 10 2 0 7 -4 10 -10z"/>
<path d="M1300 2546 c0 -154 0 -153 71 -107 66 42 124 115 143 177 6 19 0 24
-41 38 -26 9 -76 20 -110 23 l-63 6 0 -137z"/>
<path d="M1511 2564 c-20 -38 -54 -83 -85 -111 l-51 -46 35 7 c59 11 152 61
203 107 l49 44 -59 32 -58 32 -34 -65z"/>
<path d="M2488 2526 c-12 -6 -24 -19 -26 -29 -3 -14 5 -17 52 -17 55 0 55 0
45 24 -14 30 -39 38 -71 22z"/>
<path d="M3110 2437 c-32 -16 -37 -43 -10 -57 29 -16 70 11 70 45 0 28 -20 32
-60 12z"/>
<path d="M3656 2508 c-22 -31 -20 -91 2 -111 23 -21 66 -22 86 -1 23 22 21 96
-2 117 -26 24 -68 21 -86 -5z"/>
<path d="M4165 2443 c-38 -10 -47 -46 -16 -63 32 -16 71 7 71 42 0 29 -9 32
-55 21z"/>
<path d="M1206 2025 c-11 -30 -6 -35 30 -35 31 0 35 3 32 23 -4 28 -52 37 -62
12z"/>
<path d="M2002 2028 c-16 -16 -15 -60 1 -82 19 -26 59 -17 71 16 19 55 -34
104 -72 66z"/>
<path d="M2352 2028 c-22 -22 -13 -38 21 -38 41 0 49 7 36 31 -11 22 -39 25
-57 7z"/>
<path d="M3062 2028 c-22 -22 -13 -38 21 -38 41 0 49 7 36 31 -11 22 -39 25
-57 7z"/>
<path d="M3443 1973 c-20 -8 -16 -43 5 -43 21 0 42 18 42 37 0 13 -24 16 -47
6z"/>
<path d="M1610 1965 c-16 -20 -1 -39 26 -33 27 5 32 48 6 48 -11 0 -25 -7 -32
-15z"/>
<path d="M2821 1971 c-21 -14 -5 -43 21 -39 29 4 39 48 11 48 -10 0 -24 -4
-32 -9z"/>
<path d="M3157 1704 c-4 -4 -7 -24 -7 -45 0 -46 27 -67 61 -49 16 9 20 19 17
53 -3 39 -5 42 -33 45 -17 2 -34 0 -38 -4z"/>
<path d="M880 1691 c-15 -29 -12 -56 8 -74 23 -21 36 -21 56 -1 19 18 21 65 4
82 -18 18 -56 14 -68 -7z"/>
<path d="M1047 1703 c-4 -3 -7 -23 -7 -43 0 -55 32 -77 64 -44 19 18 21 65 4
82 -13 13 -50 16 -61 5z"/>
<path d="M1222 1713 c-7 -3 -17 -13 -22 -24 -10 -17 -7 -19 30 -19 28 0 40 4
40 15 0 17 -29 34 -48 28z"/>
<path d="M1441 1636 c-9 -10 -8 -16 3 -25 18 -15 56 2 56 24 0 19 -44 20 -59
1z"/>
<path d="M1733 1634 c-3 -8 0 -21 6 -27 14 -14 44 2 49 27 5 22 -46 22 -55 0z"/>
<path d="M1882 1698 c-27 -27 -2 -98 36 -98 20 0 42 31 42 59 0 32 -16 51 -45
51 -12 0 -26 -5 -33 -12z"/>
<path d="M2118 1709 c-33 -19 -21 -39 22 -39 43 0 49 9 24 34 -18 19 -23 19
-46 5z"/>
<path d="M2426 1704 c-25 -25 -19 -34 24 -34 44 0 49 8 22 33 -23 21 -27 21
-46 1z"/>
<path d="M3003 1634 c-5 -14 11 -33 29 -34 10 0 38 30 38 41 0 16 -60 10 -67
-7z"/>
<path d="M3319 1684 c-12 -33 -4 -61 22 -74 29 -16 59 4 59 40 0 46 -10 60
-41 60 -23 0 -32 -6 -40 -26z"/>
</g>
</svg>
