<?xml version="1.0" encoding="UTF-8"?>
<svg width="24" height="24" viewBox="0 0 24 24" fill="none" xmlns="http://www.w3.org/2000/svg">
    <!-- Cabeça -->
    <circle cx="12" cy="8" r="5" stroke="#D4AF37" stroke-width="2"/>
    
    <!-- Óculos -->
    <path d="M9 7.5C9 8.5 9.5 9 10.5 9C11.5 9 12 8.5 12 7.5C12 6.5 11.5 6 10.5 6C9.5 6 9 6.5 9 7.5Z" fill="#D4AF37"/>
    <path d="M12 7.5C12 8.5 12.5 9 13.5 9C14.5 9 15 8.5 15 7.5C15 6.5 14.5 6 13.5 6C12.5 6 12 6.5 12 7.5Z" fill="#D4AF37"/>
    <path d="M9 7.5H15" stroke="#D4AF37" stroke-width="1"/>
    
    <!-- Corpo -->
    <path d="M5 21C5 17.5 8 15 12 15C16 15 19 17.5 19 21" stroke="#D4AF37" stroke-width="2" stroke-linecap="round"/>
    
    <!-- Gravata -->
    <path d="M11 13L12 15L13 13" stroke="#D4AF37" stroke-width="1"/>
    <path d="M12 15L12 17" stroke="#D4AF37" stroke-width="1"/>
</svg> 