<?xml version="1.0" encoding="UTF-8"?>
<svg width="24px" height="24px" viewBox="0 0 24 24" version="1.1" xmlns="http://www.w3.org/2000/svg">
    <g stroke="none" stroke-width="1" fill="none" fill-rule="evenodd">
        <path d="M12,2 C17.52,2 22,6.48 22,12 C22,17.52 17.52,22 12,22 C6.48,22 2,17.52 2,12 C2,6.48 6.48,2 12,2 Z M12,4 C7.584,4 4,7.584 4,12 C4,16.416 7.584,20 12,20 C16.416,20 20,16.416 20,12 C20,7.584 16.416,4 12,4 Z M17,11 L15.414,11 L12.707,8.293 C12.316,7.902 11.684,7.902 11.293,8.293 L8.586,11 L7,11 C6.448,11 6,11.448 6,12 C6,12.552 6.448,13 7,13 L9,13 C9.266,13 9.52,12.895 9.707,12.707 L12,10.414 L14.293,12.707 C14.48,12.895 14.734,13 15,13 L17,13 C17.552,13 18,12.552 18,12 C18,11.448 17.552,11 17,11 Z" fill="#d4af37" fill-rule="nonzero"></path>
    </g>
</svg> 