<?xml version="1.0" encoding="UTF-8"?>
<svg width="24px" height="24px" viewBox="0 0 24 24" version="1.1" xmlns="http://www.w3.org/2000/svg">
    <g stroke="none" stroke-width="1" fill="none" fill-rule="evenodd">
        <path d="M22,8 L22,5 C22,3.9 21.1,3 20,3 L4,3 C2.9,3 2,3.9 2,5 L2,8 L4,8 L4,5 L20,5 L20,8 L22,8 Z M22,19 L22,16 L20,16 L20,19 L4,19 L4,16 L2,16 L2,19 C2,20.1 2.9,21 4,21 L20,21 C21.1,21 22,20.1 22,19 Z M3,10 L5,10 L5,14 L3,14 L3,10 Z M7,10 L9,10 L9,14 L7,14 L7,10 Z M11,10 L13,10 L13,14 L11,14 L11,10 Z M15,10 L17,10 L17,14 L15,14 L15,10 Z M19,10 L21,10 L21,14 L19,14 L19,10 Z" fill="#d4af37" fill-rule="nonzero"></path>
    </g>
</svg> 