<svg width="24" height="24" viewBox="0 0 24 24" fill="none" xmlns="http://www.w3.org/2000/svg">
  <!-- Sombra projetada -->
  <ellipse cx="12" cy="22" rx="8" ry="2" fill="rgba(212, 175, 55, 0.3)" filter="blur(4px)"/>
  
  <!-- Fundo glass com blur -->
  <rect x="2" y="2" width="20" height="20" rx="6" fill="rgba(255, 255, 255, 0.1)" stroke="rgba(212, 175, 55, 0.6)" stroke-width="1.5"/>
  <rect x="2" y="2" width="20" height="20" rx="6" fill="url(#glass-gradient)" opacity="0.8"/>
  
  <!-- Documentos empilhados -->
  <g transform="translate(6, 4)">
    <!-- Documento base -->
    <rect x="0" y="2" width="12" height="16" rx="1" fill="rgba(255, 255, 255, 0.9)" stroke="rgba(212, 175, 55, 0.8)" stroke-width="0.5"/>
    <rect x="2" y="4" width="8" height="1" rx="0.5" fill="rgba(212, 175, 55, 0.6)"/>
    <rect x="2" y="6" width="6" height="1" rx="0.5" fill="rgba(212, 175, 55, 0.4)"/>
    <rect x="2" y="8" width="7" height="1" rx="0.5" fill="rgba(212, 175, 55, 0.4)"/>
    <rect x="2" y="10" width="5" height="1" rx="0.5" fill="rgba(212, 175, 55, 0.4)"/>
    <rect x="2" y="12" width="8" height="1" rx="0.5" fill="rgba(212, 175, 55, 0.4)"/>
    <rect x="2" y="14" width="6" height="1" rx="0.5" fill="rgba(212, 175, 55, 0.4)"/>
    
    <!-- Documento superior -->
    <rect x="1" y="0" width="12" height="16" rx="1" fill="rgba(255, 255, 255, 0.95)" stroke="rgba(212, 175, 55, 0.9)" stroke-width="0.5"/>
    <rect x="3" y="2" width="8" height="1" rx="0.5" fill="rgba(212, 175, 55, 0.7)"/>
    <rect x="3" y="4" width="6" height="1" rx="0.5" fill="rgba(212, 175, 55, 0.5)"/>
    <rect x="3" y="6" width="7" height="1" rx="0.5" fill="rgba(212, 175, 55, 0.5)"/>
    <rect x="3" y="8" width="5" height="1" rx="0.5" fill="rgba(212, 175, 55, 0.5)"/>
    <rect x="3" y="10" width="8" height="1" rx="0.5" fill="rgba(212, 175, 55, 0.5)"/>
    <rect x="3" y="12" width="6" height="1" rx="0.5" fill="rgba(212, 175, 55, 0.5)"/>
  </g>
  
  <!-- Reflexos glass -->
  <rect x="3" y="3" width="18" height="18" rx="5" fill="url(#reflection-gradient)" opacity="0.3"/>
  
  <!-- Bordas glow douradas -->
  <rect x="2" y="2" width="20" height="20" rx="6" fill="none" stroke="url(#glow-gradient)" stroke-width="2" opacity="0.6"/>
  
  <!-- Gradientes -->
  <defs>
    <linearGradient id="glass-gradient" x1="0%" y1="0%" x2="100%" y2="100%">
      <stop offset="0%" style="stop-color:rgba(255,255,255,0.2);stop-opacity:1" />
      <stop offset="50%" style="stop-color:rgba(255,255,255,0.1);stop-opacity:1" />
      <stop offset="100%" style="stop-color:rgba(255,255,255,0.05);stop-opacity:1" />
    </linearGradient>
    
    <linearGradient id="reflection-gradient" x1="0%" y1="0%" x2="100%" y2="100%">
      <stop offset="0%" style="stop-color:rgba(255,255,255,0.4);stop-opacity:1" />
      <stop offset="100%" style="stop-color:rgba(255,255,255,0);stop-opacity:1" />
    </linearGradient>
    
    <linearGradient id="glow-gradient" x1="0%" y1="0%" x2="100%" y2="100%">
      <stop offset="0%" style="stop-color:#d4af37;stop-opacity:1" />
      <stop offset="50%" style="stop-color:#b8941f;stop-opacity:1" />
      <stop offset="100%" style="stop-color:#d4af37;stop-opacity:1" />
    </linearGradient>
  </defs>
</svg> 