<svg width="48" height="48" viewBox="0 0 48 48" fill="none" xmlns="http://www.w3.org/2000/svg">
  <defs>
    <!-- Gradiente dourado OLV -->
    <linearGradient id="goldGradient" x1="0%" y1="0%" x2="100%" y2="100%">
      <stop offset="0%" style="stop-color:#D4AF37;stop-opacity:1" />
      <stop offset="50%" style="stop-color:#F4E4BC;stop-opacity:0.9" />
      <stop offset="100%" style="stop-color:#D4AF37;stop-opacity:1" />
    </linearGradient>
    
    <!-- Gradiente laranja para warehouse -->
    <linearGradient id="orangeAccent" x1="0%" y1="0%" x2="100%" y2="100%">
      <stop offset="0%" style="stop-color:#F59E0B;stop-opacity:0.3" />
      <stop offset="100%" style="stop-color:#FBBF24;stop-opacity:0.2" />
    </linearGradient>
    
    <!-- Gradiente de reflexo -->
    <linearGradient id="reflectionGradient" x1="0%" y1="0%" x2="100%" y2="100%">
      <stop offset="0%" style="stop-color:#FFFFFF;stop-opacity:0.4" />
      <stop offset="100%" style="stop-color:#FFFFFF;stop-opacity:0.2" />
    </linearGradient>
    
    <!-- Filtro de blur suave para glass effect -->
    <filter id="glassBlur" x="-50%" y="-50%" width="200%" height="200%">
      <feGaussianBlur in="SourceGraphic" stdDeviation="1" />
    </filter>
    
    <!-- Filtro de glow dourado -->
    <filter id="goldGlow" x="-50%" y="-50%" width="200%" height="200%">
      <feGaussianBlur in="SourceGraphic" stdDeviation="2" />
      <feColorMatrix type="matrix" values="1 0 0 0 0.831 0.686 0 0 0 0.686 0.215 0 0 0 0.215 0 0 0 0.9 0"/>
    </filter>
  </defs>
  
  <!-- Sombra projetada sutil -->
  <ellipse cx="24" cy="42" rx="12" ry="3" fill="rgba(245, 158, 11, 0.2)" filter="url(#glassBlur)"/>
  
  <!-- Base de cristal translúcido -->
  <rect x="8" y="12" width="32" height="24" rx="4" fill="url(#orangeAccent)" stroke="url(#goldGradient)" stroke-width="2" filter="url(#glassBlur)"/>
  
  <!-- Caixa principal com glass effect -->
  <rect x="10" y="14" width="28" height="20" rx="3" fill="rgba(255, 255, 255, 0.25)" stroke="url(#goldGradient)" stroke-width="1.5" filter="url(#goldGlow)"/>
  
  <!-- Reflexo superior -->
  <rect x="10" y="14" width="28" height="6" rx="3" fill="url(#reflectionGradient)" opacity="0.7"/>
  
  <!-- Armazém/warehouse -->
  <rect x="12" y="18" width="24" height="12" rx="1" fill="url(#goldGradient)" filter="url(#goldGlow)"/>
  
  <!-- Telhado do armazém -->
  <path d="M12 18 L24 14 L36 18" stroke="url(#goldGradient)" stroke-width="2" fill="none" filter="url(#goldGlow)"/>
  
  <!-- Porta -->
  <rect x="20" y="24" width="8" height="6" rx="1" fill="rgba(255, 255, 255, 0.3)" stroke="url(#goldGradient)" stroke-width="1"/>
  
  <!-- Caixas/contêineres -->
  <rect x="14" y="20" width="4" height="3" rx="0.5" fill="url(#goldGradient)" filter="url(#goldGlow)"/>
  <rect x="30" y="20" width="4" height="3" rx="0.5" fill="url(#goldGradient)" filter="url(#goldGlow)"/>
  <rect x="22" y="20" width="4" height="3" rx="0.5" fill="url(#goldGradient)" filter="url(#goldGlow)"/>
  
  <!-- Linhas de grade para cubagem -->
  <line x1="14" y1="23" x2="34" y2="23" stroke="url(#goldGradient)" stroke-width="0.5" opacity="0.6"/>
  <line x1="14" y1="26" x2="34" y2="26" stroke="url(#goldGradient)" stroke-width="0.5" opacity="0.6"/>
  <line x1="18" y1="20" x2="18" y2="28" stroke="url(#goldGradient)" stroke-width="0.5" opacity="0.6"/>
  <line x1="24" y1="20" x2="24" y2="28" stroke="url(#goldGradient)" stroke-width="0.5" opacity="0.6"/>
  <line x1="30" y1="20" x2="30" y2="28" stroke="url(#goldGradient)" stroke-width="0.5" opacity="0.6"/>
  
  <!-- Pontos de brilho -->
  <circle cx="16" cy="16" r="1.2" fill="#F4E4BC" opacity="0.9"/>
  <circle cx="32" cy="20" r="1" fill="#F4E4BC" opacity="0.8"/>
  <circle cx="28" cy="28" r="0.8" fill="#F4E4BC" opacity="0.9"/>
</svg> 