<?xml version="1.0" encoding="UTF-8"?>
<svg width="24px" height="24px" viewBox="0 0 24 24" version="1.1" xmlns="http://www.w3.org/2000/svg">
    <g stroke="none" stroke-width="1" fill="none" fill-rule="evenodd">
        <path d="M21.58,7.19 C21.32,6.26 20.58,5.53 19.65,5.26 C17.95,4.75 12,4.75 12,4.75 C12,4.75 6.05,4.75 4.35,5.26 C3.42,5.53 2.68,6.26 2.42,7.19 C1.91,8.9 1.91,12.5 1.91,12.5 C1.91,12.5 1.91,16.1 2.42,17.81 C2.68,18.74 3.42,19.47 4.35,19.74 C6.05,20.25 12,20.25 12,20.25 C12,20.25 17.95,20.25 19.65,19.74 C20.58,19.47 21.32,18.74 21.58,17.81 C22.09,16.1 22.09,12.5 22.09,12.5 C22.09,12.5 22.09,8.9 21.58,7.19 Z M9.95,15.9 L9.95,9.1 L15.35,12.5 L9.95,15.9 Z" fill="#d4af37" fill-rule="nonzero"></path>
    </g>
</svg> 